<svg width="27" height="23" viewBox="0 0 27 23" fill="none" xmlns="http://www.w3.org/2000/svg">
<path d="M13.59 22.973C13.2222 22.9736 12.8668 22.8403 12.59 22.598C11.547 21.686 10.541 20.829 9.65404 20.073C7.35879 18.2429 5.21484 16.2307 3.24304 14.056C1.64991 12.3398 0.738167 10.1009 0.679039 7.76C0.644307 5.73051 1.37555 3.76244 2.72704 2.248C3.38326 1.53313 4.18202 0.963741 5.07181 0.576545C5.96161 0.189348 6.92268 -0.00705523 7.89304 4.72515e-07C9.36488 -0.00612253 10.7952 0.487463 11.95 1.4C12.5759 1.88956 13.1282 2.46644 13.59 3.113C14.0519 2.46644 14.6042 1.88956 15.23 1.4C16.3851 0.487249 17.8159 -0.00634924 19.288 4.72515e-07C20.2582 -0.0069152 21.2191 0.189556 22.1087 0.576748C22.9983 0.96394 23.7969 1.53326 24.453 2.248C25.8045 3.76244 26.5358 5.73051 26.501 7.76C26.4416 10.0988 25.531 12.3357 23.94 14.051C21.9686 16.2257 19.825 18.2379 17.53 20.068C16.641 20.825 15.63 21.684 14.588 22.598C14.3118 22.8398 13.9572 22.973 13.59 22.973ZM7.89304 1.513C7.13184 1.50686 6.37781 1.66031 5.67955 1.96345C4.9813 2.26659 4.35432 2.71269 3.83904 3.273C2.74537 4.50843 2.157 6.11038 2.19104 7.76C2.24906 9.74698 3.03686 11.643 4.40404 13.086C6.3219 15.1916 8.40413 17.1414 10.631 18.917C11.522 19.676 12.531 20.537 13.582 21.455C14.639 20.534 15.65 19.672 16.543 18.912C18.7728 17.1384 20.8581 15.1902 22.779 13.086C24.1448 11.6424 24.9311 9.74645 24.988 7.76C25.0221 6.11038 24.4337 4.50843 23.34 3.273C22.825 2.71259 22.1982 2.26634 21.5001 1.96303C20.8021 1.65971 20.0481 1.50607 19.287 1.512C18.1502 1.50947 17.0463 1.89308 16.156 2.6C15.4558 3.16102 14.8644 3.84567 14.411 4.62C14.3263 4.76191 14.2062 4.87941 14.0625 4.961C13.9188 5.04259 13.7563 5.08549 13.591 5.08549C13.4258 5.08549 13.2633 5.04259 13.1196 4.961C12.9759 4.87941 12.8558 4.76191 12.771 4.62C12.3173 3.84541 11.7251 3.16072 11.024 2.6C10.1337 1.89337 9.02972 1.51011 7.89304 1.513Z" fill="white"/>
</svg>
