<svg width="24" height="24" viewBox="0 0 24 24" fill="none" xmlns="http://www.w3.org/2000/svg">
<path d="M23.598 17.113C23.5759 16.9771 23.5425 16.8433 23.498 16.713C23.2981 16.1562 22.9085 15.6875 22.3977 15.3891C21.8868 15.0907 21.2872 14.9816 20.704 15.081C20.5128 15.1112 20.3174 15.0642 20.1608 14.9504C20.0042 14.8366 19.8992 14.6652 19.869 14.474L19.267 10.602C19.0236 8.99652 18.323 7.49512 17.2488 6.27734C16.1747 5.05956 14.7725 4.17693 13.21 3.735C13.0786 2.8806 12.6131 2.11341 11.9161 1.60218C11.219 1.09096 10.3474 0.877583 9.49298 1.009C8.63859 1.14041 7.87139 1.60585 7.36017 2.30292C6.84894 3 6.63557 3.8716 6.76698 4.726C5.421 5.57785 4.35392 6.8052 3.69747 8.25654C3.04101 9.70789 2.82392 11.3197 3.07298 12.893L3.71798 17.018C3.74658 17.209 3.69897 17.4036 3.58542 17.5598C3.47187 17.716 3.30147 17.8213 3.11098 17.853C2.52531 17.9374 1.98803 18.2253 1.59329 18.6661C1.19855 19.1069 0.971521 19.6726 0.951982 20.264C0.94855 20.5861 1.00861 20.9057 1.12874 21.2046C1.24887 21.5034 1.4267 21.7757 1.65208 22.0058C1.87747 22.2359 2.14599 22.4194 2.44229 22.5457C2.7386 22.672 3.05689 22.7387 3.37898 22.742H3.40798C3.53587 22.7421 3.66357 22.7324 3.78998 22.713L6.30598 22.313C6.62982 22.8907 7.12279 23.3555 7.71861 23.6447C8.31442 23.934 8.98452 24.0339 9.63879 23.931C10.2931 23.828 10.9001 23.5273 11.3784 23.0691C11.8566 22.6109 12.1831 22.0173 12.314 21.368L21.556 19.914C22.1981 19.8131 22.7739 19.4614 23.1568 18.9362C23.5397 18.411 23.6984 17.7552 23.598 17.113ZM9.75098 2.741C9.83636 2.72785 9.9226 2.72116 10.009 2.721C10.2788 2.72247 10.5442 2.79039 10.7815 2.91876C11.0189 3.04712 11.221 3.23198 11.37 3.457H11.331C11.0261 3.44777 10.7209 3.45645 10.417 3.483C10.0971 3.51353 9.7792 3.56261 9.46498 3.63C9.39698 3.644 9.32998 3.664 9.26498 3.68C9.00698 3.74 8.75498 3.812 8.50698 3.896C8.48198 3.903 8.45698 3.907 8.43298 3.916C8.51716 3.61453 8.6861 3.34356 8.91973 3.13528C9.15336 2.927 9.44187 2.79015 9.75098 2.741ZM9.12998 22.341C8.78359 22.3414 8.44626 22.2303 8.16798 22.024L10.457 21.665C10.3049 21.8743 10.1053 22.0446 9.87462 22.1617C9.64393 22.2789 9.38872 22.3397 9.12998 22.339V22.341ZM21.872 17.921C21.8103 18.0226 21.7271 18.1095 21.6283 18.1757C21.5295 18.2418 21.4174 18.2856 21.3 18.304L11.454 19.852L6.66898 20.602L3.53798 21.092C3.42076 21.1112 3.30075 21.1043 3.1865 21.0718C3.07225 21.0393 2.96657 20.982 2.87698 20.904C2.78555 20.8261 2.71242 20.729 2.66281 20.6195C2.61321 20.5101 2.58834 20.3911 2.58998 20.271C2.60716 20.0677 2.69392 19.8765 2.83564 19.7296C2.97737 19.5828 3.16538 19.4893 3.36798 19.465C3.98597 19.3658 4.53968 19.0263 4.90835 18.5205C5.27702 18.0147 5.43074 17.3837 5.33598 16.765L4.68798 12.639C4.48075 11.3105 4.68697 9.95032 5.27869 8.74291C5.87041 7.53549 6.81903 6.53919 7.99598 5.889L8.03798 5.873C8.82023 5.44894 9.68079 5.18897 10.567 5.109C10.8356 5.0852 11.1056 5.07986 11.375 5.093L11.509 5.1C11.7875 5.11529 12.0648 5.14869 12.339 5.2H12.365C13.7164 5.49275 14.9462 6.19092 15.8902 7.20123C16.8343 8.21155 17.4475 9.48589 17.648 10.854L18.258 14.73C18.3554 15.3489 18.6945 15.9038 19.2007 16.273C19.7069 16.6422 20.3389 16.7954 20.958 16.699C21.158 16.6598 21.3655 16.6907 21.5454 16.7865C21.7254 16.8823 21.8668 17.0371 21.946 17.225C21.9857 17.339 21.9996 17.4603 21.9868 17.5803C21.974 17.7003 21.9348 17.816 21.872 17.919V17.921Z" fill="white"/>
</svg>
